<svg xmlns="http://www.w3.org/2000/svg" width="16.889" height="16" viewBox="0 0 16.889 16">
  <path id="ic_account_balance_wallet_24px" d="M19,16.333v.889A1.783,1.783,0,0,1,17.222,19H4.778A1.777,1.777,0,0,1,3,17.222V4.778A1.777,1.777,0,0,1,4.778,3H17.222A1.783,1.783,0,0,1,19,4.778v.889H11A1.777,1.777,0,0,0,9.222,7.444v7.111A1.777,1.777,0,0,0,11,16.333Zm-8-1.778h8.889V7.444H11Zm3.556-2.222A1.333,1.333,0,1,1,15.889,11,1.332,1.332,0,0,1,14.556,12.333Z" transform="translate(-3 -3)" fill="#bbbebf"/>
</svg>
