<svg xmlns="http://www.w3.org/2000/svg" width="14.518" height="16.131" viewBox="0 0 14.518 16.131">
  <path id="ic_perm_contact_calendar_24px" d="M15.9,2.613H15.1V1H13.485V2.613H7.033V1H5.42V2.613H4.613A1.613,1.613,0,0,0,3,4.226V15.518a1.613,1.613,0,0,0,1.613,1.613H15.9a1.618,1.618,0,0,0,1.613-1.613V4.226A1.618,1.618,0,0,0,15.9,2.613Zm-5.646,2.42a2.42,2.42,0,1,1-2.42,2.42A2.416,2.416,0,0,1,10.259,5.033ZM15.1,14.711H5.42V13.9c0-1.613,3.226-2.5,4.839-2.5s4.839.887,4.839,2.5Z" transform="translate(-3 -1)" fill="#bbbebf"/>
</svg>
