<svg xmlns="http://www.w3.org/2000/svg" width="17.91" height="19.538" viewBox="0 0 17.91 19.538">
  <path id="ic_pan_tool_24px" d="M18.91,4.477v11.8a3.266,3.266,0,0,1-3.256,3.256H9.711a3.251,3.251,0,0,1-2.32-.969L1,12.073s1.026-1,1.058-1.018a.965.965,0,0,1,.643-.236,1,1,0,0,1,.488.13c.033.008,3.509,2,3.509,2v-9.7a1.221,1.221,0,0,1,2.442,0v5.7h.814V1.221a1.221,1.221,0,0,1,2.442,0V8.955h.814V2.035a1.221,1.221,0,1,1,2.442,0v6.92h.814V4.477a1.221,1.221,0,1,1,2.442,0Z" transform="translate(-1)" fill="#bbbebf"/>
</svg>
