<svg xmlns="http://www.w3.org/2000/svg" width="19.396" height="19.396" viewBox="0 0 19.396 19.396">
  <path id="ic_settings_applications_24px" d="M12.7,10.543A2.155,2.155,0,1,0,14.853,12.7,2.161,2.161,0,0,0,12.7,10.543ZM20.24,3H5.155A2.154,2.154,0,0,0,3,5.155V20.24A2.154,2.154,0,0,0,5.155,22.4H20.24A2.154,2.154,0,0,0,22.4,20.24V5.155A2.154,2.154,0,0,0,20.24,3Zm-1.886,9.7a5.454,5.454,0,0,1-.054.733L19.9,14.68a.381.381,0,0,1,.086.485l-1.509,2.608a.381.381,0,0,1-.463.162l-1.875-.754a5.779,5.779,0,0,1-1.271.743l-.28,1.993a.391.391,0,0,1-.377.323H11.189a.392.392,0,0,1-.377-.312l-.28-1.993a5.541,5.541,0,0,1-1.271-.743l-1.875.754a.381.381,0,0,1-.463-.162L5.414,15.176a.381.381,0,0,1,.086-.485l1.595-1.25a5.751,5.751,0,0,1-.054-.743,5.453,5.453,0,0,1,.054-.733L5.5,10.715a.381.381,0,0,1-.086-.485L6.922,7.623a.381.381,0,0,1,.463-.162l1.875.754a5.779,5.779,0,0,1,1.271-.743l.28-1.993a.391.391,0,0,1,.377-.323h3.017a.392.392,0,0,1,.377.312l.28,1.993a5.541,5.541,0,0,1,1.271.743L18.01,7.45a.381.381,0,0,1,.463.162l1.509,2.608a.381.381,0,0,1-.086.485L18.3,11.954a5.751,5.751,0,0,1,.054.743Z" transform="translate(-3 -3)" fill="#bbbebf"/>
</svg>
