<svg xmlns="http://www.w3.org/2000/svg" width="18.267" height="15.044" viewBox="0 0 18.267 15.044">
  <path id="Subtraction_4" data-name="Subtraction 4" d="M-7173.56,8879.043h-14.614a1.857,1.857,0,0,1-1.827-1.881v-11.281a1.857,1.857,0,0,1,1.827-1.882h14.614a1.856,1.856,0,0,1,1.826,1.882v11.281A1.856,1.856,0,0,1-7173.56,8879.043Zm-3.653-3.762v1.881h3.653v-1.881Zm-10.961,0v1.881h9.133v-1.881Zm5.48-3.76v1.881h9.134v-1.881Zm-5.48,0v1.881h3.653v-1.881Zm1.889-5.342a2.1,2.1,0,0,0-2.068,2.13,2.1,2.1,0,0,0,2.068,2.13,2.1,2.1,0,0,0,2.069-2.13A2.1,2.1,0,0,0-7186.285,8866.18Zm0,3.662a1.479,1.479,0,0,1-1.242-.686c.007-.425.824-.656,1.242-.656s1.234.231,1.241.656A1.479,1.479,0,0,1-7186.285,8869.842Zm0-1.744a.631.631,0,0,1-.621-.64.63.63,0,0,1,.621-.639.63.63,0,0,1,.621.639A.631.631,0,0,1-7186.285,8868.1Z" transform="translate(7190 -8863.999)" fill="#bbbebf"/>
</svg>
