<svg xmlns="http://www.w3.org/2000/svg" width="201" height="175" viewBox="0 0 201 175">
    <defs>
        <filter id="a" width="100%" height="100%" x="0%" y="0%" filterUnits="objectBoundingBox">
            <feGaussianBlur in="SourceGraphic"/>
        </filter>
    </defs>
    <g fill="none" fill-rule="evenodd" opacity=".9">
        <path fill="#EEEFF1" d="M111.568 170.986c8.83 0 17.486.43 24.6 0 14.305-.866 18.832-3.151 18.832-4.993 0-2.758-16.846-4.993-43.432-4.993-26.585 0-45.567.346-45.567 3.104 0 1.412-.279 7.817 8.803 8.725 8.657.866 23.79-1.843 36.764-1.843z" filter="url(#a)" transform="rotate(8 110.5 167)"/>
        <path fill="#F6F5FB" d="M170.225 28.76c-11.94-6.822-19.325-10.805-22.154-11.949-18.963-7.668-47.1 11.705-68.61 8.339-27.57-4.315-46.052 4.702-55.447 27.05a36 36 0 0 1-8.128 11.895c-5.02 4.867-9.466 16.922-13.339 36.166a150.3 150.3 0 0 0-1.639 9.698c-2.784 20.801 11.822 39.92 32.623 42.705a38 38 0 0 0 5.041.336h109.584a36 36 0 0 0 28.942-14.59c11.09-14.992 15.545-30.009 13.365-45.052-1.677-11.565-2.38-22.356-2.11-32.37a36 36 0 0 0-18.128-32.228z"/>
        <path fill="#EEEDF7" d="M166.318 62.33c-3.554 4.385-11.946 17.19-12.457 17.948-.512.758-.861.445-.861 1.8s.844.83.86 1.962c.055 3.625.055 21.093 0 52.405 2.403 8.835 4.572 13.873 6.506 15.113 2.342 1.503 12.325 2.14 16.335 0 2.316-1.235 4.546-6.273 6.692-15.113.344-24.28.344-42.082 0-53.403-.019-.595.607-.964.607-1.659 0-.88-.44-1.392-1.318-1.534l-10.84-17.52h-5.524z"/>
        <path fill="#E0DFED" d="M168.366 62.33c0 7.659 3.915 16.937 3.4 17.704-.514.766 3.148 3.209 3.148 4.578 0 1.37-.017 19.965 0 21.11.055 3.662.283 15.071.683 34.227-4.201 8.2-7.331 12.647-9.389 13.343-2.3.779 6.413 1.37 10.448-.792 2.33-1.249 4.574-6.34 6.733-15.273.346-24.537.346-42.526 0-53.967-.018-.6.611-.973.611-1.676 0-.89-.442-1.406-1.326-1.55L171.766 62.33h-3.4z"/>
        <path fill="#FFF" d="M156.369 85.514c-.342 16.882-1.753 33.777-1.026 50.646.16 3.708 5.162 17.284 5.207 13.573l2.069 2.135c.087-7.162-2.81-16.185-3.397-23.321-1.223-14.886 1.63-39.419-2.417-43.833l-.436.8z"/>
        <path fill="#FFE126" d="M162.62 57.29c3.395.008 6.87-.67 10.183.021.747.156.535 1.503.212 2.15-.65 1.303-.98 2.652-2.29 2.787-1.794.184-1.821 0-4.745 0-1.652 0-2.529-1.635-3.36-2.787"/>
        <path fill="#EFEFF5" d="M46.212 75.902c-5.3-2.094-4.824-6.393-5.473-10.927-.873-6.108-4.81-12.547-13.854-7.213-5.726 3.377-5.087 12.123 0 18.14 5.143 6.085 15.875 10.604 20.374 7.268 1.289-.956-.601-3.734 0-5.855l-1.047-1.413z"/>
        <path stroke="#FFF" d="M26.112 59.577c4.668 12.75 4.676 17.87 17.315 21.681" opacity=".5"/>
        <path stroke="#E7E6F1" d="M30.952 57.161c8.875 11.175 5.129 4.824 10.703 19.35M28.468 59.12C38.93 78.163 32.25 73.162 42.989 79.375"/>
        <g>
            <path fill="#EFEFF5" d="M66.405 100.86c6.545-2.585 5.957-7.89 6.758-13.486 1.08-7.537 5.94-15.483 17.111-8.9 7.072 4.167 6.283 14.96 0 22.386-6.352 7.51-19.606 13.086-25.164 8.969-1.591-1.18.744-4.608 0-7.226l1.295-1.743z"/>
            <path stroke="#FFF" d="M84.94 77.484c-8.359 8.815-7.738 21.044-19.077 26.035" opacity=".5"/>
            <path stroke="#E7E6F1" d="M88.801 78.376c-13.723 22.662-5.287 14.593-22.752 26.556M90.39 82.756c-.63 15.985-9.949 21.928-25.413 24.067"/>
        </g>
        <g>
            <path fill="#EDEEF9" d="M44.132 128.032c-.014-10.048-1.812-21.565-2.02-31.618-.258-12.368 1.126-23.272 1.929-35.612.49-7.533 22.386-10.745 24.47-1.465 3.9 17.369 0 20.416 0 39.776 0 11.024-1.46 19.005-2.06 23.7-.912 7.132-5.81 9.058-20.733 7.783l-1.586-2.564z"/>
            <path stroke="#E4E3EF" d="M59.828 55.148c8.213 20.337 1.054 70.793 1.054 73.43M58.236 54.958c3.797 23.319.869 4.698-.98 73.56"/>
            <path stroke="#FAFAFA" d="M53.318 54.806c-3.796 23.32-.869 4.698.98 73.56M49.266 54.82c-4.203 23.249-.95 4.682-.304 73.565" opacity=".7"/>
        </g>
        <g>
            <path stroke="#E4E3EF" d="M101.564 87.558c-6.667 4.117-6.993 2.61.348 4.61"/>
            <path stroke="#FFF" d="M77.097 74.383c5.3 4.505 3.345 4.682 4.942-3.196" opacity=".6"/>
            <path stroke="#E4E3EF" d="M64.25 52.187c1.414 6.953-.38 5.463 6.969.702"/>
            <path stroke="#FFF" d="M20.097 69.187c5.405 1.692 5.368.49.932 3.487" opacity=".5"/>
            <path stroke="#E4E3EF" d="M34.866 59.405l-.37-5.573M35.322 59.03l3.559-3.553"/>
        </g>
        <g>
            <path fill="#ECEAF6" d="M37.83 123.374c11.026.028 22.108-1.495 32.192.83 11.271 2.6 15.524 20.047-3.479 27.815-7.594 3.104-19.127.666-24.76 0-5.372-.635-10.555-6.094-11.045-16.892-.16-3.535-.868-8.885 0-10.47.579-1.056 2.943-1.484 7.092-1.283z"/>
            <path fill="#DCDBEB" d="M66.618 123.179c7.594.021 2.83-.895 9.645.54 5.598 1.18 5.598 11.955.938 22.02-2.106 4.55-10.771 8.535-14.652 8.03-3.699-.48.338-11.772 0-19.95-.11-2.678-2.122-8.323-1.524-9.523.4-.8 2.263-1.173 5.593-1.117z"/>
        </g>
        <g stroke="#76797E" stroke-linecap="round" stroke-width="2">
            <path d="M27 153.457h45.036M112.041 153.457h68.498M184.6 153.457h2.671"/>
        </g>
        <path fill="#DDD" d="M104.927 10c1.503 0 .828-2.095 1.789-3.135C107.618 5.888 110 6.455 110 5c0-1.427-2.413-.797-3.284-1.768-.964-1.074-.259-3.232-1.79-3.232-1.457 0-.74 2.246-1.695 3.232C102.278 4.217 100 3.498 100 5c0 1.507 2.272.88 3.231 1.865.954.98.243 3.135 1.696 3.135z" opacity=".3"/>
        <g fill="#D9D9D9" transform="translate(8 16)">
            <ellipse cx="186.449" cy="106.37" rx="2.026" ry="2.061"/>
            <ellipse cx="191.274" cy="58.963" opacity=".4" rx="1.49" ry="1.516"/>
            <ellipse cx="64.752" cy="128.216" rx="2.563" ry="2.606"/>
            <ellipse cx="165.004" cy="129.801" opacity=".5" rx="2.026" ry="2.061"/>
            <ellipse cx="69.694" cy="24.431" rx="2.144" ry="2.13"/>
            <ellipse cx="78.272" cy="60.642" opacity=".3" rx="2.144" ry="2.13"/>
            <ellipse cx="28.95" cy="35.081" opacity=".6" rx="2.144" ry="2.13"/>
            <ellipse cx="81.489" cy="30.821" opacity=".1" rx="1.072" ry="1.065"/>
            <path d="M162.352 18.833c1.11.933 1.903-1.024 3.254-1.192 1.268-.158 2.68 1.736 3.577.668.879-1.048-1.293-2.082-1.339-3.335-.05-1.386 1.8-2.534.669-3.484-1.078-.904-1.931 1.19-3.245 1.322-1.311.132-2.552-1.809-3.478-.706-.928 1.106 1.138 2.055 1.24 3.374.101 1.311-1.752 2.452-.678 3.353z"/>
            <path d="M40.704 60.04c1.117.645 1.508-1.19 2.665-1.546 1.086-.334 2.614 1.106 3.234.033.608-1.053-1.453-1.624-1.686-2.713-.259-1.206 1.184-2.496.047-3.153-1.082-.625-1.507 1.34-2.636 1.658-1.128.318-2.514-1.19-3.153-.081-.642 1.111 1.313 1.623 1.606 2.762.29 1.132-1.156 2.417-.077 3.04zM3.215 83.846c.977.564 1.32-1.042 2.332-1.353.95-.292 2.287.968 2.83.028.531-.92-1.272-1.42-1.476-2.373-.226-1.055 1.036-2.185.042-2.759-.948-.547-1.32 1.173-2.307 1.451-.987.278-2.2-1.041-2.76-.071-.561.972 1.15 1.42 1.406 2.416.254.991-1.011 2.115-.067 2.66zM36.454 9.293c.977.564 1.32-1.042 2.332-1.353.95-.292 2.287.968 2.83.028.531-.92-1.272-1.42-1.476-2.373-.226-1.055 1.036-2.184.041-2.759-.947-.547-1.318 1.173-2.306 1.451-.987.278-2.2-1.04-2.76-.071-.561.972 1.15 1.42 1.406 2.416.254.991-1.012 2.116-.067 2.66z" opacity=".3"/>
        </g>
        <g>
            <path fill="#E0DFED" fill-rule="nonzero" d="M125.847 107.99l2.064-.558 10.42 38.518-2.065.558z"/>
            <path fill="#E7E7EC" fill-rule="nonzero" d="M129.314 110.45l2.064-.558 10.42 38.519-2.064.558z"/>
            <path fill="#E7E7EC" fill-rule="nonzero" d="M135.59 120.332h3.723l.318 24.491h-3.723z"/>
            <path fill="#E0DFED" fill-rule="nonzero" d="M135.59 114.113h3.724v5.951h-3.723z"/>
            <path fill="#E7E7EC" fill-rule="nonzero" d="M142.982 113.458l1.159-1.962.937 2.345-4.026 32.484-2.096-.383z"/>
            <path fill="#E0DFED" fill-rule="nonzero" d="M147.653 113.18l1.599-1.624.342 2.502-11.765 30.545-1.941-.879z"/>
            <path fill="#F0EFF8" d="M130.314 124.16c3.556.232 5.961.347 7.216.347 1.272 0 3.73-.119 7.375-.356a3 3 0 0 1 3.192 3.115c-.285 7.081-.546 12.002-.783 14.763a88.867 88.867 0 0 1-.678 5.631 6 6 0 0 1-5.933 5.106h-6.443a6 6 0 0 1-5.996-5.779c-.182-4.938-.317-8.174-.403-9.71-.095-1.695-.34-4.99-.732-9.883a3 3 0 0 1 3.185-3.233z"/>
            <path fill="#E4E3EF" d="M141.301 128.458c-4.122-2.635-5.439-3.953-3.95-3.953 1.269 0 3.717-.118 7.346-.354a3 3 0 0 1 3.191 3.14c-.357 7.327-.655 12.376-.892 15.146a101.72 101.72 0 0 1-.792 6.568 3.52 3.52 0 0 1-4.287 2.898 2.757 2.757 0 0 1-1.77-4.04c2.282-4.036 3.376-6.886 3.282-8.548-.104-1.847-.357-4.726-.76-8.636a3 3 0 0 0-1.368-2.221z" opacity=".809"/>
            <path stroke="#FFF" stroke-linecap="square" stroke-width=".5" d="M129.81 126.83l1.07 21.363"/>
        </g>
        <g>
            <path stroke="#212429" d="M73.783 152.142c-2.531-.563-2.44-.71-.149.485"/>
            <path stroke="#9FA0A2" d="M73.704 152.699c34.023 4.613 49.138.214 70.686 16.477"/>
            <path stroke="#212429" d="M142.266 167.693c6.796 3.491 1.558 3.468-1.04-.82M141.453 161.552c2.592.066 2.539-.099.027.507"/>
            <path stroke="#9FA0A2" d="M141.395 162.11c-34.128-3.754-47.73-11.68-72.572-1.112"/>
            <path stroke="#212429" d="M71.242 160.073c-7.438 1.744-2.35 2.988 1.207-.544"/>
            <path stroke="#F9CEA6" stroke-width="1.5" d="M113.478 155.876c4.02-.173 8.026-.657 12.063-.52 28.09.951 15.5 21.126-4.991 13.934-6.926-2.43-12.608-7.492-7.81-12.558l.738-.856z"/>
            <path stroke="#FBDBBC" stroke-width="1.5" d="M102.167 154.487c-3.86-1.14-7.629-2.579-11.58-3.423-27.485-5.872-20.148 16.75 1.473 14.728 7.308-.683 14.046-4.22 10.616-10.295l-.509-1.01z"/>
            <path stroke="#F9CEA6" stroke-width="1.5" d="M103.045 154.594c7.162-2.093 3.605-2.345 10.656.98"/>
        </g>
    </g>
</svg>