<?xml version="1.0" encoding="UTF-8"?>
<svg width="54px" height="34px" viewBox="0 0 54 34" version="1.1" xmlns="http://www.w3.org/2000/svg" xmlns:xlink="http://www.w3.org/1999/xlink">
    <!-- Generator: Sketch 60.1 (88133) - https://sketch.com -->
    <title>4245221</title>
    <desc>Created with Sketch.</desc>
    <g id="Page-1" stroke="none" stroke-width="1" fill="none" fill-rule="evenodd">
        <g id="3-criteria" transform="translate(-241.000000, -365.000000)" fill="#000000" fill-rule="nonzero">
            <g id="4245221" transform="translate(241.000000, 365.000000)">
                <path d="M24.685336,34 L22.314664,34 C21.8647375,34 21.5,33.5522847 21.5,33 C21.5,32.4477153 21.8647375,32 22.314664,32 L24.685336,32 C25.1352625,32 25.5,32.4477153 25.5,33 C25.5,33.5522847 25.1352625,34 24.685336,34 Z" id="Path"></path>
                <path d="M38.7346343,34 L37.2543084,34 C36.832885,34 36.4912538,33.6610019 36.4912538,33.2428307 C36.4912538,32.8246596 36.832885,32.4856649 37.2543084,32.4856649 L37.9715797,32.4856649 L37.9715797,27.1552173 C37.9782537,26.1697844 37.7187189,25.2005754 37.2199709,24.3484035 C36.2285389,22.6455133 34.4189832,21.5736599 32.4379079,21.515846 C29.0502087,23.3502466 24.9551316,23.3502466 21.5674325,21.515846 C19.5855924,21.57372 17.7745342,22.6434933 16.778502,24.3446177 C16.2794386,25.1975226 16.0196505,26.1674777 16.0261301,27.153703 L16.0261301,32.4841505 L16.7434014,32.4841505 C17.1648248,32.4841505 17.506456,32.8231452 17.506456,33.2413164 C17.506456,33.6594876 17.1648248,33.9984823 16.7434014,33.9984823 L15.2630756,33.9984823 C14.8416522,33.9984823 14.5,33.6594876 14.5,33.2413164 L14.5,27.1552173 C14.4969663,25.9030239 14.8273217,24.6722499 15.4576545,23.5874518 C16.7501372,21.3707498 19.1338123,20.0040797 21.714702,20 C21.8741087,20 22.0311532,20.0382389 22.1725347,20.1113034 C25.1695947,21.8013189 28.8418501,21.8013189 31.8389101,20.1113034 C31.9585287,20.0393045 32.0957936,20.0013241 32.2356985,20.0015143 C34.83367,19.9925824 37.2386716,21.3610475 38.5431076,23.5904805 C39.1730151,24.6748661 39.5031042,25.9051065 39.5,27.1567316 L39.5,33.2443451 C39.4995739,33.4452896 39.418688,33.6378334 39.2751361,33.7795674 C39.1315842,33.9213014 38.9371411,34.0005998 38.7346343,34 Z" id="Path"></path>
                <path d="M31.695171,34 L29.304829,34 C28.8603342,34 28.5,33.5522847 28.5,33 C28.5,32.4477153 28.8603342,32 29.304829,32 L31.695171,32 C32.1396658,32 32.5,32.4477153 32.5,33 C32.5,33.5522847 32.1396658,34 31.695171,34 Z" id="Path"></path>
                <path d="M52.7464539,34 L37.2535461,34 C36.8373741,34 36.5,33.6661108 36.5,33.2542376 C36.5,32.8423644 36.8373741,32.5084753 37.2535461,32.5084753 L51.9929078,32.5084753 L51.9929078,28.6230533 C51.9918432,26.4046297 50.2215938,24.5825611 47.9817819,24.4945128 C46.6997692,25.2008987 45.2540327,25.5648321 43.7867908,25.5505123 C42.3219287,25.5676804 40.8782007,25.2037903 39.6000887,24.4952585 C39.1053693,24.5132627 38.6179109,24.6188402 38.1608156,24.8069872 C37.9113995,24.9142437 37.6229386,24.8801804 37.4060242,24.7178568 C37.1891097,24.5555331 37.0773969,24.2901342 37.1137145,24.0234097 C37.1500322,23.7566852 37.3287454,23.5300185 37.5813387,23.4303099 C38.2675339,23.146194 39.0039561,23 39.7477837,23 C39.9054557,22.9994981 40.0607964,23.0376759 40.1999113,23.1111236 C42.4375475,24.3345936 45.1533656,24.3345936 47.3910018,23.1111236 C47.5091944,23.0395539 47.6450381,23.0016215 47.7835993,23.0014965 C49.2952529,22.9955524 50.7472481,23.5847688 51.8195441,24.6392738 C52.8918401,25.6937787 53.4964108,27.1270067 53.5,28.6230533 L53.5,33.2542376 C53.5,33.6661108 53.1626259,34 52.7464539,34 Z" id="Path"></path>
                <path d="M16.7464539,34 L1.2535461,34 C0.83737408,34 0.5,33.6661109 0.5,33.2542377 L0.5,28.623054 C0.50124199,25.5209506 3.03972519,23.0053526 6.17420213,23 C6.33206911,22.9994222 6.48754853,23.038147 6.62632979,23.1126166 C8.86337694,24.3352627 11.5781124,24.3352627 13.8151596,23.1126166 C13.9335706,23.0409148 14.0696935,23.0029773 14.2085106,23.0029896 C14.9673995,22.9984897 15.7194782,23.1448157 16.4201684,23.4332944 C16.6727617,23.533003 16.8514749,23.7596697 16.8877926,24.0263942 C16.9241102,24.2931187 16.8123974,24.5585175 16.5954829,24.7208411 C16.3785685,24.8831648 16.0901076,24.917228 15.8406915,24.8099715 C15.3862275,24.6217277 14.9012664,24.5158857 14.4089539,24.4974972 C11.7852901,25.8614797 8.65167794,25.8614797 6.02801418,24.4974972 C3.78722643,24.5842142 2.01386025,26.403728 2.0070922,28.623054 L2.0070922,32.5084755 L16.7464539,32.5084755 C17.1626259,32.5084755 17.5,32.8423646 17.5,33.2542377 C17.5,33.6661109 17.1626259,34 16.7464539,34 Z" id="Path"></path>
                <path d="M26.9927582,18 C24.4875807,18.0008734 22.1478355,16.7337947 20.7581411,14.6236703 C19.3684468,12.5135458 19.1128222,9.83979153 20.0769896,7.49903388 C20.1788754,7.23445334 20.4141778,7.04637459 20.6920371,7.00742235 C20.9698964,6.9684701 21.24683,7.08474005 21.4159028,7.31133572 C21.5849756,7.53793139 21.6197292,7.83939253 21.5067439,8.09931296 C20.5797749,10.346743 21.0821473,12.9382085 22.7794042,14.664274 C24.4766611,16.3903396 27.0342002,16.9107235 29.2584195,15.9825628 C31.4826388,15.0544022 32.935049,12.8606774 32.9378112,10.4251985 C32.9378112,10.2277176 32.9378112,10.0333714 32.9455522,9.84451076 C32.9517449,9.55299142 32.9571636,9.26382304 32.9455522,8.96289984 C32.9361492,8.68292718 33.0750023,8.4191434 33.3098068,8.27091332 C33.5446112,8.12268323 33.8396948,8.1125265 34.0839022,8.24426907 C34.3281096,8.37601165 34.4843401,8.6296387 34.4937431,8.90961136 C34.5045804,9.23952976 34.4991617,9.55612604 34.4937431,9.87585693 C34.4898726,10.056881 34.4860021,10.2386888 34.4860021,10.4244148 C34.4778948,14.6088673 31.1261775,17.9974155 26.9927582,18 Z" id="Path"></path>
                <path d="M33.8626902,10 C33.5459628,10.0003595 33.2608858,9.8129253 33.1427466,9.52664606 C32.8660837,8.85398668 31.9609233,7.13496825 30.8542716,6.49854641 C29.6143257,7.38561125 25.6534737,9.91317985 21.801892,9.18238941 C19.626562,8.76867746 17.8743635,7.40146518 16.5948944,5.11925494 C16.4429828,4.84839694 16.4756195,4.51473373 16.6773076,4.27669882 C16.8789957,4.03866392 17.2091109,3.9442027 17.5109044,4.03816825 C19.0320483,4.34113905 20.5990378,3.78689158 21.5663023,2.60376552 C21.7212955,2.45277576 24.6522175,-0.265039939 27.8714269,0.0210856579 C29.3408534,0.168193166 30.6794391,0.90935076 31.5610407,2.06397712 C32.7690308,1.98104915 33.9486053,2.44637581 34.7570011,3.32474163 C35.8032054,4.61494914 35.744308,6.70087269 34.5818588,9.52664606 C34.4638248,9.8126697 34.1791351,10 33.8626902,10 L33.8626902,10 Z M18.7756491,5.62129589 C19.5827942,6.69018656 20.766251,7.43154011 22.099479,7.7034447 C25.9417612,8.43876483 30.2203493,5.07622286 30.2629724,5.04225016 C30.4711635,4.87636791 30.7527568,4.82750471 31.0069399,4.91315391 C32.1539454,5.41024203 33.1030401,6.25848024 33.7100219,7.32899009 C34.0866554,5.92252047 34.0331827,4.88069112 33.5449541,4.27295733 C32.8412848,3.39797166 31.325451,3.5935034 31.3099517,3.5935034 C31.0238825,3.63378068 30.7385773,3.51562163 30.569859,3.28699419 C29.9479144,2.31015446 28.9035669,1.66200346 27.731933,1.52569863 C25.2202677,1.30449863 22.694653,3.63955528 22.671404,3.6614488 C21.6768104,4.77422069 20.2830227,5.47431654 18.7756491,5.6182761 L18.7756491,5.62129589 Z" id="Shape"></path>
                <path d="M44.4964307,22 C42.4912572,22.002838 40.6177791,20.979101 39.5055801,19.2728106 C38.3933811,17.5665202 38.1900988,15.4041761 38.9640463,13.5124355 C39.0647866,13.2417377 39.3014619,13.0484514 39.581885,13.0078635 C39.862308,12.9672756 40.1421355,13.0858043 40.312372,13.3172815 C40.4826084,13.5487586 40.5163344,13.8565808 40.4004132,14.1208483 C39.7080689,15.8159852 40.0829613,17.7707577 41.3501247,19.0728567 C42.6172882,20.3749557 44.5269043,20.7676751 46.1877385,20.0677294 C47.8485727,19.3677836 48.9331951,17.7131655 48.9354031,15.8760997 C48.9354031,15.7170375 48.9354031,15.5683143 48.9416245,15.4172052 C48.9462905,15.1913369 48.9509566,14.9686498 48.9416245,14.7356237 C48.9344889,14.5247941 49.0095504,14.3197026 49.1502925,14.1654773 C49.2910346,14.0112519 49.4859255,13.9205294 49.6920814,13.9132722 C49.8994277,13.9013233 50.1025482,13.976515 50.2543752,14.1214236 C50.4062021,14.2663322 50.4935571,14.4683798 50.496198,14.6807473 C50.5047525,14.9431999 50.496198,15.1945182 50.496198,15.4490177 C50.496198,15.5889924 50.4899766,15.7313531 50.4899766,15.8760997 C50.4844039,19.2580429 47.8033859,21.997368 44.4964307,22 L44.4964307,22 Z" id="Path"></path>
                <path d="M49.0633559,14.9977557 C48.747625,14.9978072 48.4635776,14.8121284 48.34581,14.5287033 C48.0025172,13.6896409 47.4553683,12.9429317 46.7506623,12.3517612 C45.6797561,13.0953627 42.6750329,14.9244429 39.7298475,14.3716044 C37.9147112,13.9815854 36.3881001,12.8012003 35.5946803,11.1742675 C35.4431114,10.9058703 35.4756745,10.5752384 35.6769075,10.339366 C35.8781406,10.1034937 36.2075109,10.0098907 36.5086234,10.1030025 C37.6168035,10.3124616 38.7530791,9.90540195 39.4530356,9.04819557 C39.5821629,8.92700498 41.9010422,6.78821553 44.4603921,7.01713108 C45.6119166,7.12885649 46.6651026,7.69434428 47.3723292,8.58063929 L47.3723292,8.58063929 C48.329566,8.53827425 49.2550747,8.9179045 49.8891522,9.61300355 C50.7396914,10.6521006 50.7010305,12.3061277 49.7793553,14.5309475 C49.6616929,14.8141197 49.3780316,14.9997462 49.0625827,15 L49.0633559,14.9977557 Z M37.7666482,11.6029231 C38.3450603,12.2720507 39.142528,12.7297556 40.026763,12.9001112 C42.9139571,13.4447208 46.145233,10.9229092 46.176935,10.8974742 C46.3846563,10.733099 46.6656142,10.6846797 46.9192238,10.7695508 C47.7194246,11.0943033 48.3981274,11.6475987 48.864639,12.3555017 C49.0660619,11.7528569 48.9996894,11.0963405 48.6813864,10.5428795 C48.210497,9.96011734 47.1303121,10.0865446 47.1194871,10.0872926 C46.8346498,10.124519 46.5515918,10.0079709 46.3818376,9.78356809 C45.9310219,9.07653219 45.1726475,8.60591058 44.3204397,8.5043341 C42.7740047,8.37042598 41.0806584,9.60552265 40.556417,10.0932774 C39.8323847,10.8904566 38.8476942,11.4233086 37.7666482,11.6029231 L37.7666482,11.6029231 Z" id="Shape"></path>
                <path d="M10.4964307,22 C8.49125719,22.0028515 6.61777915,20.9742616 5.50558012,19.2598827 C4.39338109,17.5455038 4.19009877,15.3729094 4.96404632,13.4722013 C5.13624464,13.0777768 5.58249091,12.8955818 5.97118335,13.0610037 C6.35987578,13.2264256 6.55006064,13.6794765 6.40041318,14.0834982 C5.7080689,15.7866706 6.08296126,17.7507095 7.35012475,19.058981 C8.61728824,20.3672524 10.5269043,20.7618334 12.1877385,20.0585697 C13.8485727,19.3553059 14.9331951,17.6928443 14.9354031,15.8470701 C14.9354031,15.6872539 14.9354031,15.5378257 14.9416245,15.3860003 C14.9416245,15.1590613 14.9509566,14.9353186 14.9416245,14.7011879 C14.9344889,14.4893589 15.0095504,14.2832951 15.1502925,14.1283387 C15.2910346,13.9733823 15.4859255,13.8822297 15.6920814,13.8749381 C15.8990275,13.8645309 16.1012641,13.9406196 16.2527391,14.0858775 C16.404214,14.2311355 16.4920329,14.4331976 16.496198,14.6460513 C16.5047525,14.909748 16.496198,15.1622576 16.496198,15.4179636 C16.496198,15.5586018 16.4899766,15.7016373 16.4899766,15.8470701 C16.4844039,19.245045 13.8033859,21.9973556 10.4964307,22 L10.4964307,22 Z" id="Path"></path>
                <path d="M15.0633559,14.9977566 C14.747625,14.9978081 14.4635776,14.8121986 14.34581,14.5288795 C14.0027864,13.6899897 13.4555951,12.9435019 12.7506623,12.3527514 C11.6797561,13.0960749 8.6703936,14.9229755 5.73062067,14.3718393 C3.91503861,13.98249 2.38797691,12.8024186 1.59468027,11.1756979 C1.44311143,10.9074011 1.4756745,10.5768928 1.67690753,10.3411087 C1.87814056,10.1053245 2.20751088,10.0117565 2.50862336,10.1048335 C3.61840577,10.31473 4.75633504,9.90650316 5.45612846,9.04742974 C5.58448256,8.92628446 7.90645471,6.78829472 10.4627118,7.01712468 C11.613897,7.13014544 12.6662157,7.69648841 13.3723292,8.58303952 L13.3723292,8.58303952 C14.329566,8.54069032 15.2550747,8.92017862 15.8891522,9.61501778 C16.7396914,10.6537263 16.7010305,12.307135 15.7793553,14.5311229 C15.6616929,14.8141892 15.3780316,14.9997463 15.0625827,15 L15.0633559,14.9977566 Z M3.76664822,11.6041933 C4.34518276,12.2729314 5.14259564,12.7304337 6.02676297,12.9008964 C8.91395711,13.4438067 12.1444598,10.9236859 12.176935,10.9012516 C12.3846563,10.7369378 12.6656142,10.6885366 12.9192238,10.773376 C13.7192142,11.0979721 14.3978587,11.6507523 14.864639,12.3579861 C15.0656473,11.7557731 14.9992871,11.0998941 14.6813864,10.5467895 C14.2112702,9.96424521 13.1303121,10.0906252 13.1187139,10.091373 C12.8341593,10.1281307 12.5515595,10.0116927 12.3818376,9.78776197 C11.9310219,9.08099043 11.1726475,8.61054479 10.3204397,8.5090063 C8.78173692,8.37514825 7.0798852,9.60978311 6.55641696,10.0973554 C5.83203184,10.893406 4.84738247,11.4252447 3.76664822,11.6041933 Z" id="Shape"></path>
            </g>
        </g>
    </g>
</svg>