<?xml version="1.0" encoding="UTF-8"?>
<svg width="80px" height="89px" viewBox="0 0 80 89" version="1.1" xmlns="http://www.w3.org/2000/svg" xmlns:xlink="http://www.w3.org/1999/xlink">
    <!-- Generator: Sketch 60.1 (88133) - https://sketch.com -->
    <title>2618179 copy</title>
    <desc>Created with Sketch.</desc>
    <g id="Page-1" stroke="none" stroke-width="1" fill="none" fill-rule="evenodd">
        <g id="2-events" transform="translate(-155.000000, -345.000000)" fill="#FFCF12" fill-rule="nonzero">
            <g id="2618179-copy" transform="translate(155.000000, 345.000000)">
                <path d="M79.9334481,15.4753437 C79.7310942,13.2180954 77.8604561,11.5158598 75.5821395,11.5158598 L64.2796762,11.5158598 L64.2796762,9.85899156 L64.4996794,9.85899156 C66.113618,9.85899156 67.4266469,8.5528955 67.4266469,6.94765233 L67.4266469,2.91133923 C67.4266469,1.30609606 66.113618,0 64.4996794,0 L31.2336012,0 C30.5098102,0 29.9230187,0.583519362 29.9230187,1.30366256 C29.9230187,2.02380576 30.5098102,2.60732512 31.2336012,2.60732512 L64.4996794,2.60732512 C64.6683076,2.60732512 64.8054819,2.74360131 64.8054819,2.91133923 L64.8054819,6.94765233 C64.8054819,7.11539025 64.6683076,7.25166644 64.4996794,7.25166644 L15.5003206,7.25166644 C15.3316924,7.25166644 15.1945181,7.11539025 15.1945181,6.94765233 L15.1945181,2.91133923 C15.1945181,2.74360131 15.3316924,2.60732512 15.5003206,2.60732512 L25.0887168,2.60732512 C25.8125078,2.60732512 26.3992993,2.02380576 26.3992993,1.30366256 C26.3992993,0.583519362 25.8125078,0 25.0887168,0 L15.5003206,0 C13.886382,0 12.5733531,1.30609606 12.5733531,2.91133923 L12.5733531,6.94765233 C12.5733531,8.5528955 13.886382,9.85899156 15.5003206,9.85899156 L15.7203238,9.85899156 L15.7203238,11.5158598 L4.41786047,11.5158598 C2.13954389,11.5158598 0.268905837,13.2180954 0.0665519029,15.4753437 C0.0399907647,15.7704929 -0.548897629,22.7968864 2.34364527,30.5788828 C4.99014816,37.6989662 11.0618147,46.7901875 24.9732108,50.3580512 C27.2127341,52.1181694 29.7699427,53.4955324 32.5443584,54.3881067 L33.2040182,55.4711895 C34.450819,57.5186351 35.1097799,59.9391019 35.1097799,62.4708146 C35.1097799,64.017306 34.8619925,65.528164 34.3734073,66.9609761 L33.4573975,69.6461733 L30.4096817,69.6461733 C27.2821076,69.6461733 24.7374807,72.1773645 24.7374807,75.2885987 L24.7374807,78.019511 L19.9676595,78.019511 C18.6216039,78.019511 17.5264812,79.1090253 17.5264812,80.4479736 L17.5264812,86.5717112 C17.5264812,87.9106596 18.6216039,89 19.9676595,89 L60.0325153,89 C61.3785709,89 62.4736936,87.9106596 62.4736936,86.5717112 L62.4736936,80.4479736 C62.4736936,79.1090253 61.3785709,78.019511 60.0325153,78.019511 L55.262694,78.019511 L55.262694,75.2885987 C55.262694,72.1773645 52.7180671,69.6461733 49.5904931,69.6461733 L46.5427772,69.6461733 L45.6267674,66.9609761 C45.1380075,65.5283378 44.8902201,64.0174798 44.8902201,62.4708146 C44.8902201,59.9392757 45.549181,57.5188089 46.7959818,55.4711895 L47.4556416,54.3881067 C50.2300573,53.4955324 52.7870911,52.1183433 55.0267892,50.3580512 C68.9381853,46.7901875 75.0098518,37.6989662 77.6563547,30.5788828 C80.5488976,22.7968864 79.9600092,15.7706667 79.9334481,15.4753437 Z M16.2055888,36.2164412 C13.7619641,33.9407678 11.889928,31.11773 10.6095763,27.7530639 C9.71995295,25.4151623 9.13770484,22.8768444 8.87855899,20.2069435 L15.7203238,20.2069435 L15.7203238,31.4031452 C15.7203238,33.0509747 15.8879036,34.6605634 16.2055888,36.2164412 L16.2055888,36.2164412 Z M4.802298,29.6748363 C2.11210903,22.4372494 2.65311748,15.9783836 2.67740694,15.707048 C2.75831357,14.8042182 3.50656879,14.1233587 4.41786047,14.1233587 L15.7203238,14.1233587 L15.7203238,17.5997922 L8.77004277,17.5997922 C8.06197874,17.5997922 7.38257278,17.898244 6.90587025,18.4186661 C6.42864348,18.9397835 6.19273864,19.6413278 6.25861725,20.3435673 C6.53453855,23.2851515 7.17357856,26.0887213 8.15808812,28.6762308 C10.1024683,33.7862404 13.2497884,37.7763169 17.5579351,40.6169107 C18.4056199,42.6520149 19.5252068,44.547714 20.8717866,46.2589884 C11.3765292,42.3440029 6.90464704,35.3306459 4.802298,29.6748363 Z M59.8525286,80.6268361 L59.8525286,86.3926749 L20.1474714,86.3926749 L20.1474714,80.6268361 L59.8525286,80.6268361 Z M49.5904931,72.2534984 C51.2727568,72.2534984 52.6415291,73.6150436 52.6415291,75.2885987 L52.6415291,78.019511 L27.3586457,78.019511 L27.3586457,75.2885987 C27.3586457,73.6150436 28.727418,72.2534984 30.4096817,72.2534984 L49.5904931,72.2534984 Z M43.144699,67.7987965 L43.774827,69.6461733 L36.2249982,69.6461733 L36.855301,67.7986227 C37.4361512,66.0953441 37.7307701,64.302895 37.7307701,62.4708146 C37.7307701,59.9064234 37.1546381,57.4306813 36.0589911,55.2347921 C37.3421387,55.4440734 38.6581383,55.5546239 40,55.5546239 C41.341687,55.5546239 42.6578613,55.4440734 43.9408341,55.2347921 C42.8451872,57.4306813 42.2690551,59.9064234 42.2690551,62.4708146 C42.2692299,64.3030688 42.5636741,66.0955179 43.144699,67.7987965 L43.144699,67.7987965 Z M40,52.947125 C28.0574482,52.947125 18.3414887,43.2824661 18.3414887,31.4031452 L18.3414887,9.85899156 L61.6585113,9.85899156 L61.6585113,31.4031452 C61.6585113,43.2826399 51.9425518,52.947125 40,52.947125 L40,52.947125 Z M75.1978767,29.6748363 C73.0955277,35.3308198 68.6234708,42.344872 59.1276891,46.2598575 C60.4767154,44.5454544 61.5980497,42.6461049 62.4464335,40.606829 C66.1455962,38.1634178 68.994453,34.8726258 70.9561329,30.7520092 C71.2659546,30.1013947 70.9867131,29.3238903 70.3326451,29.0158783 C69.6787518,28.7078663 68.8972952,28.9852857 68.5872987,29.6360741 C67.3728256,32.1872548 65.7711191,34.3852298 63.7933628,36.224437 C64.1120964,34.6661257 64.2800257,33.0539296 64.2800257,31.403319 L64.2800257,20.2071173 L71.1217905,20.2071173 C70.9914312,21.5484992 70.7747483,22.8787565 70.4775081,24.162951 C70.3151707,24.8646691 70.7553516,25.5644751 71.4607945,25.7257817 C72.1655384,25.8881311 72.8695833,25.449579 73.0319208,24.7478609 C73.3628865,23.3174824 73.6015873,21.8356526 73.7417322,20.3435673 C73.8076109,19.6413278 73.571706,18.9397835 73.0944792,18.4186661 C72.6177767,17.898244 71.9383707,17.5997922 71.2303067,17.5997922 L64.2800257,17.5997922 L64.2800257,14.1233587 L75.582489,14.1233587 C76.4937807,14.1233587 77.2420359,14.8042182 77.3229425,15.7072218 C77.3468825,15.9783836 77.887891,22.4372494 75.1978767,29.6748363 Z" id="Shape"></path>
                <path d="M50.3929425,24.7515098 L46.733012,24.2252003 C46.5735516,24.2021269 46.4358745,24.1030965 46.3645683,23.9602772 L44.7277595,20.6781272 C44.211598,19.6430238 43.1663412,19 41.9999149,19 C40.8334886,19 39.7882318,19.6430238 39.2720703,20.6781272 L37.6352615,23.9602772 C37.5639553,24.1032649 37.4262782,24.2022953 37.2668178,24.2252003 L33.6068873,24.7515098 C32.452544,24.9174025 31.5116086,25.7024036 31.1511635,26.8003272 C30.7907184,27.8982508 31.0856435,29.0807208 31.9208959,29.8866059 L34.5692656,32.4411857 C34.6846489,32.5525106 34.7372351,32.7126771 34.710006,32.8699805 L34.0847579,36.4775161 C33.8875172,37.6151866 34.3512627,38.7432572 35.2949209,39.4218175 C36.238409,40.1000409 37.4661007,40.1881241 38.4987641,39.6510358 L41.7722116,37.9478142 C41.914824,37.8735414 42.0850058,37.8735414 42.2276182,37.9478142 L45.5012359,39.6510358 C45.9503458,39.884633 46.4362149,40 46.9195313,40 C47.5476724,40 48.1717292,39.8051392 48.7049089,39.4216491 C49.6485671,38.7430888 50.1123126,37.6148497 49.9150719,36.4773476 L49.2898238,32.8698121 C49.2625948,32.7125087 49.3151809,32.5523422 49.4305642,32.4411857 L52.0791041,29.886269 C52.9143565,29.0805524 53.2092816,27.897914 52.8488365,26.8001588 C52.4883914,25.7024036 51.5471157,24.9174025 50.3929425,24.7515098 Z M50.2971301,28.0774487 L47.6485903,30.6323653 C46.9316142,31.3240623 46.6045247,32.3200924 46.7736855,33.2969227 L47.3989335,36.9044583 C47.4436913,37.1626447 47.2961437,37.3120323 47.2042455,37.378221 C47.1125175,37.4444097 46.9232753,37.537377 46.6889349,37.4151048 L43.4153172,35.7118832 C42.9721637,35.4813175 42.4859542,35.3659505 41.9997447,35.3659505 C41.5135352,35.3659505 41.0273257,35.4813175 40.5841723,35.7118832 L37.3107247,37.4151048 C37.0765545,37.5372086 36.8873123,37.4442413 36.795244,37.378221 C36.7033458,37.3120323 36.5559683,37.1628131 36.6005559,36.9044583 L37.225804,33.2969227 C37.3951349,32.3200924 37.0680454,31.3240623 36.3508992,30.6321969 L33.7025295,28.0776171 C33.512947,27.894714 33.5434095,27.6880639 33.5786372,27.5811178 C33.6136946,27.4741717 33.7117193,27.2892476 33.9736292,27.2515218 L37.6335597,26.7252123 C38.6246986,26.5825614 39.4808834,25.9669899 39.9240369,25.0784111 L41.5608458,21.7962611 C41.6779309,21.5613166 41.8860633,21.5262854 41.9995745,21.5262854 C42.1130858,21.5262854 42.3212182,21.5613166 42.4383033,21.7962611 L44.0751122,25.0784111 C44.5182657,25.9669899 45.3744504,26.5827298 46.3655894,26.7252123 L50.0256901,27.2515218 C50.2875999,27.2892476 50.3856247,27.4741717 50.4206821,27.5811178 C50.4560799,27.6880639 50.4865425,27.894714 50.2971301,28.0774487 L50.2971301,28.0774487 Z" id="Shape"></path>
            </g>
        </g>
    </g>
</svg>