<?xml version="1.0" encoding="UTF-8"?>
<svg width="18px" height="24px" viewBox="0 0 18 24" version="1.1" xmlns="http://www.w3.org/2000/svg" xmlns:xlink="http://www.w3.org/1999/xlink">
    <!-- Generator: Sketch 60.1 (88133) - https://sketch.com -->
    <title>delete</title>
    <desc>Created with Sketch.</desc>
    <g id="Page-1" stroke="none" stroke-width="1" fill="none" fill-rule="evenodd">
        <g id="4-enrollment" transform="translate(-879.000000, -372.000000)" fill="#EB0000" fill-rule="nonzero">
            <g id="delete" transform="translate(888.000000, 384.000000) scale(-1, 1) translate(-888.000000, -384.000000) translate(879.000000, 372.000000)">
                <path d="M12.5,9 C12.2238281,9 12,9.25702754 12,9.57416268 L12,20.4258373 C12,20.7427482 12.2238281,21 12.5,21 C12.7761719,21 13,20.7427482 13,20.4258373 L13,9.57416268 C13,9.25702754 12.7761719,9 12.5,9 Z" id="Path"></path>
                <path d="M5.5,9 C5.2238281,9 5,9.25702754 5,9.57416268 L5,20.4258373 C5,20.7427482 5.2238281,21 5.5,21 C5.77617185,21 6,20.7427482 6,20.4258373 L6,9.57416268 C6,9.25702754 5.77617185,9 5.5,9 Z" id="Path"></path>
                <path d="M1.47411925,7.14508169 L1.47411925,20.9929925 C1.47411925,21.8114887 1.75127113,22.5801462 2.23542531,23.1316651 C2.71734929,23.6847209 3.38802859,23.9986826 4.08993049,24 L13.9100696,24 C14.6121742,23.9986826 15.2828535,23.6847209 15.7645747,23.1316651 C16.2487289,22.5801462 16.5258808,21.8114887 16.5258808,20.9929925 L16.5258808,7.14508169 C17.4883096,6.86844402 18.1119521,5.86157071 17.9832092,4.7921246 C17.8542637,3.72289809 17.0130762,2.92306393 16.0171945,2.92284439 L13.3598206,2.92284439 L13.3598206,2.22027254 C13.3628618,1.62945351 13.1471415,1.06212673 12.760913,0.644755156 C12.3746845,0.227603118 11.8499813,-0.00468470151 11.3043955,7.16302415e-05 L6.69560452,7.16302415e-05 C6.15001869,-0.00468470151 5.62531558,0.227603118 5.23908707,0.644755156 C4.85285856,1.06212673 4.63713827,1.62945351 4.64017945,2.22027254 L4.64017945,2.92284439 L1.98280553,2.92284439 C0.986923886,2.92306393 0.145736415,3.72289809 0.0167907764,4.7921246 C-0.111952027,5.86157071 0.511690466,6.86844402 1.47411925,7.14508169 Z M13.9100696,22.875885 L4.08993049,22.875885 C3.20251724,22.875885 2.51217178,22.0503631 2.51217178,20.9929925 L2.51217178,7.19448126 L15.4878283,7.19448126 L15.4878283,20.9929925 C15.4878283,22.0503631 14.7974828,22.875885 13.9100696,22.875885 Z M5.67823197,2.22027254 C5.67478527,1.92760746 5.78102346,1.64592005 5.97281991,1.43932003 C6.16441358,1.23272 6.42514315,1.1192107 6.69560452,1.12426045 L11.3043955,1.12426045 C11.5748568,1.1192107 11.8355865,1.23272 12.0271801,1.43932003 C12.2189766,1.64570051 12.3252148,1.92760746 12.3217681,2.22027254 L12.3217681,2.92284439 L5.67823197,2.92284439 L5.67823197,2.22027254 Z M1.98280553,4.04695936 L16.0171945,4.04695936 C16.5331796,4.04695936 16.9514418,4.49989866 16.9514418,5.05866283 C16.9514418,5.61742699 16.5331796,6.0703663 16.0171945,6.0703663 L1.98280553,6.0703663 C1.46682039,6.0703663 1.04855825,5.61742699 1.04855825,5.05866283 C1.04855825,4.49989866 1.46682039,4.04695936 1.98280553,4.04695936 Z" id="Shape"></path>
                <path d="M9.5,9 C9.2238281,9 9,9.25702754 9,9.57416268 L9,20.4258373 C9,20.7427482 9.2238281,21 9.5,21 C9.77617185,21 10,20.7427482 10,20.4258373 L10,9.57416268 C10,9.25702754 9.77617185,9 9.5,9 Z" id="Path"></path>
            </g>
        </g>
    </g>
</svg>