<?xml version="1.0" encoding="UTF-8"?>
<svg width="18px" height="18px" viewBox="0 0 18 18" version="1.1" xmlns="http://www.w3.org/2000/svg" xmlns:xlink="http://www.w3.org/1999/xlink">
    <!-- Generator: Sketch 60.1 (88133) - https://sketch.com -->
    <title>edit (2)</title>
    <desc>Created with Sketch.</desc>
    <g id="Page-1" stroke="none" stroke-width="1" fill="none" fill-rule="evenodd">
        <g id="4-enrollment" transform="translate(-921.000000, -375.000000)" fill="#F0961A" fill-rule="nonzero">
            <g id="edit-(2)" transform="translate(921.000000, 375.000000)">
                <path d="M17.459474,3.35441521 L14.6454705,0.540529695 C13.9247692,-0.180176565 12.752119,-0.180176565 12.0312804,0.540529695 L1.06269543,11.5091901 C0.940060862,11.6318255 0.857938284,11.7864587 0.825116703,11.9566102 L0.0294339201,16.0766385 C-0.072464033,16.6043965 0.0937037418,17.1462996 0.473692413,17.5264282 C0.853681084,17.9064194 1.39571769,18.072451 1.9234721,17.9705524 L6.04347204,17.1750015 C6.21362237,17.1420423 6.36839185,17.0599191 6.4908891,16.9374211 L17.459474,5.96876071 C18.1801753,5.24805445 18.1801753,4.07525882 17.459474,3.35441521 Z M1.72338407,16.9349491 C1.5373036,16.9709295 1.35355775,16.9146243 1.21952489,16.7805906 C1.0853547,16.6464195 1.02918725,16.4628097 1.06503005,16.2767279 L1.6919358,13.0305285 L4.96956118,16.3080391 L1.72338407,16.9349491 Z M6.04484531,15.8917927 L2.1084539,11.9552369 L11.1641866,2.89944192 L15.1007153,6.83586041 L6.04484531,15.8917927 Z M16.7136416,5.22292311 L15.8464105,6.09002281 L11.9100191,2.153467 L12.7771128,1.2863673 C13.0866519,0.976826139 13.5902364,0.976826139 13.8996381,1.2863673 L16.7136416,4.10025281 C17.0230433,4.40979397 17.0230433,4.91338195 16.7136416,5.22292311 L16.7136416,5.22292311 Z" id="Shape"></path>
            </g>
        </g>
    </g>
</svg>