<?xml version="1.0" encoding="UTF-8"?>
<svg width="50px" height="38px" viewBox="0 0 50 38" version="1.1" xmlns="http://www.w3.org/2000/svg" xmlns:xlink="http://www.w3.org/1999/xlink">
    <!-- Generator: Sketch 60.1 (88133) - https://sketch.com -->
    <title>1425298</title>
    <desc>Created with Sketch.</desc>
    <g id="Page-1" stroke="none" stroke-width="1" fill="none" fill-rule="evenodd">
        <g id="3-criteria" transform="translate(-245.000000, -566.000000)" fill="#000000" fill-rule="nonzero">
            <g id="Group-5" transform="translate(187.000000, 566.000000)">
                <g id="1425298" transform="translate(58.000000, 0.000000)">
                    <path d="M42.480471,8.77249752 C41.2120845,8.77249752 40.4823331,8.94355787 40.0642424,9.14914773 C39.0274081,8.99832888 37.6209296,9.28845674 36.1164134,11.02843 C36.0214275,10.8410971 35.9252972,10.6624958 35.8314556,10.4874666 C34.432988,7.88147555 35.2912946,8.03745407 34.2376756,5.32628676 C34.0862322,4.93614219 33.6589862,4.7476186 33.2840016,4.90518468 C32.9090169,5.06314753 32.7282004,5.50726939 32.8796438,5.89741396 C33.8104296,8.29265547 33.0242208,8.38314667 34.552388,11.2304479 C35.3153272,12.6517171 35.7734722,13.7245154 35.7734722,16.592058 C35.7734722,19.1841578 34.3792008,20.3569728 33.54836,20.825305 C32.5176291,21.4063545 31.4399774,21.4388995 31.1092433,21.2495822 C30.8055935,20.6439255 31.1443385,17.9561747 31.256872,16.7317638 C31.5715845,13.3133356 29.506308,10.1298672 26.3458322,9.1626421 C23.8384325,8.39465661 22.9011616,7.24724265 22.5566946,6.42012032 C22.4350058,6.12761116 22.1519554,5.94543783 21.8452537,5.9625042 C21.5393151,5.97957047 21.2757196,6.19349513 21.1849299,6.4979111 C21.1799707,6.51497747 20.6668941,8.20851432 19.6804137,9.29798214 C18.308649,10.8129178 17.6281072,12.860879 17.8135014,14.9163812 C17.9081058,15.9621908 18.2579135,20.2402866 17.8276158,21.2007645 C17.4633123,21.371428 16.6336159,21.4035762 15.8123118,20.9455632 C14.9982556,20.4915191 14.0045273,19.4675384 13.8927567,17.1647727 C13.676082,12.6910094 16.1296946,11.2157629 16.468821,8.36925554 C16.7236427,6.230803 17.5987341,4.47495407 18.8697907,3.55138703 C20.0325101,2.70600764 21.5526666,2.50200535 23.3882983,2.94533336 C23.6511309,3.00843917 23.9261705,2.91636029 24.1043168,2.70561077 C24.1138535,2.69370407 25.1606061,1.52406417 27.2995063,1.52406417 C28.8860384,1.52406417 30.2551328,2.14996237 31.3682612,3.38469251 C31.6448267,3.69148978 32.1086937,3.70696858 32.4035697,3.41922212 C32.6984457,3.13107868 32.713323,2.64885523 32.4363761,2.34205796 C31.0550746,0.810055957 29.2789521,0 27.2995063,0 C25.2201154,0 23.9082414,0.880702733 23.3356555,1.37522975 C21.2448206,0.950555674 19.4614501,1.26171878 18.0305576,2.30157506 C17.0841315,2.98938837 15.433894,4.66824026 15.0150403,8.18152579 C14.8975477,9.16542026 14.3612014,10.0870029 13.8412583,11.1169368 C12.306606,9.24678304 10.9920618,8.82052139 10.1135373,8.82052139 C8.84400639,8.82052139 8.11425504,8.99118488 7.6957829,9.1971716 C6.62423468,9.04317761 5.5290355,9.42459052 4.50974869,10.3116435 C1.70442111,12.7525276 -0.127014479,18.6205715 0.00688133123,21.3857161 C0.138106829,24.090533 1.26878286,25.1137199 1.93139555,25.4828293 C2.87591432,26.0091076 3.93411097,25.8130432 4.40789628,25.3451078 C5.04189873,26.0170455 5.80750827,26.5409425 6.64674142,26.8810787 L6.64674142,28.9429311 L4.61541575,28.9429311 C3.41798261,28.9429311 2.44370927,29.9565926 2.44370927,31.2028325 L2.44370927,35.4912475 C2.44370927,35.9123496 2.77139159,36.2532796 3.17613093,36.2532796 L6.24963157,36.2532796 C6.65398936,36.2532796 6.98205323,35.9123496 6.98205323,35.4912475 C6.98205323,35.0705423 6.65398936,34.7292154 6.24963157,34.7292154 L3.90855258,34.7292154 L3.90855258,31.2028325 C3.90855258,30.7972092 4.22555376,30.4669953 4.61541575,30.4669953 L11.8770713,30.4669953 C11.3399621,30.8428518 10.9855768,31.4810537 10.9855768,32.2033966 L10.9855768,34.7296123 L9.37463064,34.7296123 C8.97027285,34.7296123 8.64220899,35.0705423 8.64220899,35.4916444 C8.64220899,35.9123496 8.97027285,36.2536765 9.37463064,36.2536765 L11.0130427,36.2536765 C11.170971,37.2431275 11.999523,38 12.9951587,38 L16.1338907,38 C16.4211373,38 16.694651,37.9368942 16.9418433,37.8233832 C17.0688727,37.9337191 17.2325232,38 17.4106695,38 L32.588201,38 C32.7667288,38 32.9299978,37.9337191 33.0570271,37.8233832 C33.3046009,37.9368942 33.5781147,38 33.8653612,38 L37.0040932,38 C38.0157506,38 38.8546023,37.2185202 38.9934573,36.2056526 L47.0565805,36.2056526 C47.4613197,36.2056526 47.7890021,35.8647226 47.7890021,35.4436205 L47.7890021,31.1548086 C47.7890021,29.9089656 46.8147287,28.8953041 45.6172956,28.8953041 L43.5859699,28.8953041 L43.5859699,26.8354362 C44.2817705,26.5544368 44.9295059,26.1464322 45.4944624,25.6272977 C46.0746777,25.864639 46.9501504,25.8388411 47.8069312,25.3562208 C49.786377,24.240955 50,21.8242814 50,20.8368148 C50,16.5126796 46.2097179,8.77249752 42.480471,8.77249752 L42.480471,8.77249752 Z M35.7105297,20.98684 C35.7399029,21.8719084 35.8440442,23.6805439 35.7250256,24.1885653 C34.8735855,24.4814714 34.1838884,23.3955757 33.9633989,22.3144427 C34.6374557,21.9822443 35.230641,21.525025 35.7105297,20.98684 Z M20.7466212,10.342998 C21.3062372,9.72464076 21.7334831,8.97888121 22.0348442,8.3434576 C22.8893361,9.32814591 24.1939622,10.0921624 25.9323192,10.6243942 C28.4206455,11.3864263 30.0468505,13.8935913 29.7988952,16.5865015 C29.606253,18.6805022 29.387671,20.3617355 29.6169342,21.4099265 C26.6468117,24.3739138 21.7887963,23.8774022 19.4648833,20.2736255 C19.5484252,19.1508189 19.5121856,17.4354528 19.2718597,14.7738971 C19.1257568,13.154182 19.6632475,11.5392296 20.7466212,10.342998 Z M24.999626,31.8418282 L23.1041035,30.3511029 L26.8951485,30.3511029 L24.999626,31.8418282 Z M28.3466403,28.8270388 L21.652993,28.8270388 L21.652993,27.3045622 L28.3466403,27.3045622 L28.3466403,28.8270388 Z M23.6774523,25.780498 L23.6774523,24.7561205 C24.529274,24.8997953 25.4253461,24.9081301 26.3217996,24.7537391 L26.3217996,25.780498 L23.6774523,25.780498 Z M15.8916575,22.6263995 C15.5403239,23.5829086 14.9383649,23.9865475 14.5691023,24.1508606 C14.1716111,24.3270806 13.8351548,24.3179521 13.6879075,24.2675468 C13.5425676,23.8218374 13.7470353,22.0159801 13.8229478,21.2122744 C14.3745528,21.8647643 15.0753125,22.3581007 15.8916575,22.6263995 Z M2.62338138,24.1393507 C1.95962426,23.7694477 1.53924479,22.7379261 1.46981727,21.3087191 C1.35308762,18.8968082 3.0895373,13.5344042 5.44968982,11.4804897 C6.21148461,10.8176805 6.95992794,10.5692263 7.67365761,10.7414773 C7.89910618,10.7958514 8.13332847,10.7359207 8.30804161,10.5843082 C8.38166522,10.5458097 8.82722172,10.3445856 10.1135373,10.3445856 C10.983288,10.3445856 12.0765798,11.1800426 13.1462207,12.6513202 C12.7315632,13.7276905 12.4122731,15.0120321 12.414562,16.639685 C11.7748374,15.9244862 10.9512445,15.3771725 10.0010037,15.0858539 C8.99163515,14.7766753 7.69425692,14.1837191 7.2494634,13.1156835 C6.98052735,12.4707344 6.07987752,12.5187584 5.87769868,13.1934742 C5.87388403,13.2061747 5.49661051,14.448049 4.78021062,15.239848 C3.8154739,16.3062959 3.32337815,17.7601103 3.31841907,19.5604111 C3.31231555,21.3368984 3.50495768,23.6091034 3.35847335,24.2361923 C3.17040886,24.3000919 2.89765806,24.292551 2.62338138,24.1393507 Z M4.87862974,23.540838 C4.89465151,22.5176513 4.7783033,21.0424047 4.78364383,19.5651738 C4.78745857,18.1637491 5.14527702,17.0599933 5.84679966,16.28407 C6.21644369,15.8760653 6.51131968,15.397414 6.73524237,14.9604362 C7.40090682,15.6383272 8.35458085,16.1697652 9.58710919,16.5476061 C11.3868828,17.0992856 12.5629536,18.9138745 12.383663,20.8626128 C12.2528188,22.2811038 12.0838278,23.6087066 12.2337454,24.4608331 C10.0471615,26.5623747 6.544889,26.1631016 4.87862974,23.540838 Z M9.75419284,27.2743984 L9.75419284,28.9429311 L8.11158473,28.9429311 L8.11158473,27.2740015 C8.63992012,27.3470296 9.19076224,27.3517923 9.75419284,27.2743984 L9.75419284,27.2743984 Z M11.2190361,26.8842538 C11.9148367,26.6028576 12.5621907,26.1948529 13.1267658,25.6757186 C13.6314501,25.8840867 14.3619643,25.8995655 15.1439771,25.5526822 C16.1979776,25.0847469 16.9868567,24.112759 17.3687079,22.8371491 C17.9462528,22.8089697 18.6737154,22.6168741 19.0059754,22.1279036 C19.8928923,23.1383899 20.9915247,23.900025 22.2122275,24.3604194 L22.2122275,25.780498 L20.9201899,25.780498 C20.5158321,25.780498 20.1877682,26.121428 20.1877682,26.5425301 L20.1877682,28.8270388 L19.3107697,28.8270388 C18.2960604,28.8270388 17.4137212,29.4275359 16.9742682,30.3046666 C16.7186836,30.1816302 16.4337258,30.1129679 16.1338907,30.1129679 L15.1516065,30.1129679 C14.7754774,29.4096758 14.0499222,28.9429311 13.2503619,28.9429311 L11.2190361,28.9429311 L11.2190361,26.8842538 Z M16.1338907,36.4759358 L12.9951587,36.4759358 C12.6949422,36.4759358 12.4504202,36.2219251 12.4504202,35.9095713 L12.4504202,32.2033966 C12.4504202,31.8910428 12.6949422,31.6370321 12.9951587,31.6370321 L16.1338907,31.6370321 C16.4341073,31.6370321 16.6782478,31.8910428 16.6782478,32.2033966 L16.6782478,35.9095713 C16.6782478,36.2219251 16.4341073,36.4759358 16.1338907,36.4759358 Z M31.8557793,36.4759358 L18.1430911,36.4759358 L18.1430911,31.5659884 C18.1430911,30.8960352 18.6672304,30.3511029 19.3111511,30.3511029 L20.6745235,30.3511029 L24.2672043,33.1761782 L24.2672043,34.2993817 C24.2672043,34.7204838 24.5952682,35.0614138 24.999626,35.0614138 C25.4039838,35.0614138 25.7320477,34.7204838 25.7320477,34.2993817 L25.7320477,33.1761782 L29.324347,30.3511029 L30.6881009,30.3511029 C31.3320216,30.3511029 31.8557793,30.8960352 31.8557793,31.5659884 L31.8557793,36.4759358 Z M37.5488318,35.9095713 C37.5488318,36.2219251 37.3043098,36.4759358 37.0040932,36.4759358 L33.8653612,36.4759358 C33.5651446,36.4759358 33.3210041,36.2219251 33.3210041,35.9095713 L33.3210041,32.2033966 C33.3210041,31.8910428 33.5651446,31.6370321 33.8653612,31.6370321 L37.0040932,31.6370321 C37.3043098,31.6370321 37.5488318,31.8910428 37.5488318,32.2033966 L37.5488318,35.9095713 Z M46.3241588,31.1548086 L46.3241588,34.6815884 L39.0132937,34.6815884 L39.0132937,32.2033966 C39.0132937,31.4493023 38.6276279,30.787287 38.0504644,30.4193683 L45.6172956,30.4193683 C46.0071575,30.4193683 46.3241588,30.7495822 46.3241588,31.1548086 L46.3241588,31.1548086 Z M36.9831124,28.8953041 C36.1564678,28.8953041 35.4209944,29.3810996 35.0555464,30.1129679 L33.8653612,30.1129679 C33.5655262,30.1129679 33.2805684,30.1816302 33.0246022,30.3046666 C32.5855307,29.4275359 31.7031915,28.8270388 30.6884823,28.8270388 L29.8114836,28.8270388 L29.8114836,26.5425301 C29.8114836,26.121428 29.4834198,25.780498 29.079062,25.780498 L27.7870244,25.780498 L27.7870244,24.3524817 C28.7853304,23.9730531 29.7100128,23.3916068 30.5015622,22.6359249 C31.1100062,22.9327999 31.9000298,22.9204964 32.5660757,22.7903159 C32.9620412,24.501316 33.8413286,25.2018298 34.376912,25.4768759 C35.3035016,25.9535428 36.32317,25.7435871 36.7752115,25.296687 C37.4092139,25.9686247 38.1748234,26.4917279 39.0136751,26.8322611 L39.0136751,28.8953041 L36.9831124,28.8953041 Z M42.1211266,28.8949073 L40.4785185,28.8949073 L40.4785185,27.2251838 C41.0091427,27.2986088 41.5599848,27.3025777 42.1211266,27.2255807 L42.1211266,28.8949073 Z M47.1092233,24.0159175 C46.6465006,24.2766753 46.2306988,24.2806442 46.0571301,24.2211105 C46.0281384,24.1218875 45.983125,23.8535887 46.0166943,23.1887951 C46.0376751,22.7684868 45.7275403,22.4100936 45.323564,22.3882645 C44.9180619,22.3660386 44.5747391,22.6891085 44.5537584,23.1094167 C44.5316331,23.5459977 44.5224778,24.0059951 44.5972458,24.4171749 C42.4263023,26.4960938 38.9240298,26.1337317 37.2455635,23.4924173 C37.2531929,22.9974933 37.2303047,22.4100936 37.2036019,21.7214864 C37.1772804,21.0443892 37.1475258,20.2771975 37.1501961,19.5179437 C37.1551552,18.1149314 37.5129736,17.0111756 38.2148777,16.23684 C38.5841403,15.8284383 38.8790164,15.349787 39.102939,14.9128092 C39.768222,15.5907001 40.7218961,16.1221382 41.9548059,16.5003761 C43.4768696,16.9667237 44.5724503,18.3312375 44.746019,19.9759567 C44.7898881,20.3942806 45.1522842,20.6967121 45.5539716,20.6502758 C45.9560407,20.6042362 46.246339,20.227983 46.2020885,19.8096591 C45.9640515,17.552139 44.4595353,15.679207 42.3690819,15.0382269 C41.3585689,14.7286515 40.0611907,14.1356952 39.6175416,13.0676596 C39.4954713,12.7747535 39.2112765,12.5917865 38.9049563,12.6096466 C38.5986362,12.6271098 38.3350407,12.8414313 38.2450138,13.1462442 C38.2411992,13.1585477 37.8738439,14.3579545 37.1894874,15.1453877 C37.1139565,14.0952122 36.9571724,13.2815842 36.7584268,12.6132186 C37.5728644,11.497556 38.7458834,10.3807027 40.0409728,10.6938503 C40.2664214,10.7482244 40.5010252,10.6882937 40.6757382,10.5366811 C40.7493619,10.4981827 41.1945369,10.2969586 42.480471,10.2969586 C43.6088582,10.2969586 45.1164261,11.7214029 46.4153301,14.0142464 C47.7031715,16.288039 48.5351567,18.9658673 48.5351567,20.8372117 C48.5351567,21.7242647 48.3501439,23.3169911 47.1092233,24.0159175 L47.1092233,24.0159175 Z" id="Shape"></path>
                </g>
            </g>
        </g>
    </g>
</svg>