<?xml version="1.0" encoding="UTF-8"?>
<svg width="11px" height="15px" viewBox="0 0 11 15" version="1.1" xmlns="http://www.w3.org/2000/svg" xmlns:xlink="http://www.w3.org/1999/xlink">
    <!-- Generator: Sketch 60.1 (88133) - https://sketch.com -->
    <title>pin copy</title>
    <desc>Created with Sketch.</desc>
    <g id="Page-1" stroke="none" stroke-width="1" fill="none" fill-rule="evenodd">
        <g id="2-events" transform="translate(-82.000000, -271.000000)" fill="#000000" fill-rule="nonzero">
            <g id="Group-4" transform="translate(82.000000, 271.000000)">
                <g id="pin-copy">
                    <path d="M5.5,3 C4.39742857,3 3.5,3.89742857 3.5,5 C3.5,6.10257143 4.39742857,7 5.5,7 C6.60257143,7 7.5,6.10257143 7.5,5 C7.5,3.89742857 6.60257143,3 5.5,3 Z M5.5,6.42857143 C4.71228571,6.42857143 4.07142857,5.78771429 4.07142857,5 C4.07142857,4.21228571 4.71228571,3.57142857 5.5,3.57142857 C6.28771429,3.57142857 6.92857143,4.21228571 6.92857143,5 C6.92857143,5.78771429 6.28771429,6.42857143 5.5,6.42857143 Z" id="Shape"></path>
                    <path d="M9.38989299,1.53870738 C8.35101566,0.54650547 6.96967021,0 5.50055654,0 C4.03115605,0 2.65009742,0.54650547 1.61122009,1.53870738 C-0.311362672,3.37463703 -0.550287248,6.8289899 1.09378919,8.921873 L5.50055654,15 L9.90072693,8.93036507 C11.5514003,6.8289899 11.3124758,3.37463703 9.38989299,1.53870738 Z M9.43549804,8.61013204 L5.50055654,14.0373833 L1.5593049,8.60163997 C0.0681057743,6.70270468 0.28178982,3.58310353 2.01707636,1.92605512 C2.94753414,1.03740161 4.18460701,0.547875158 5.50055654,0.547875158 C6.81650607,0.547875158 8.05357894,1.03740161 8.98432354,1.92605512 C10.7196101,3.58310353 10.9332941,6.70270468 9.43549804,8.61013204 Z" id="Shape"></path>
                </g>
            </g>
        </g>
    </g>
</svg>