<?xml version="1.0" encoding="UTF-8"?>
<svg width="14px" height="18px" viewBox="0 0 14 18" version="1.1" xmlns="http://www.w3.org/2000/svg" xmlns:xlink="http://www.w3.org/1999/xlink">
    <!-- Generator: Sketch 60.1 (88133) - https://sketch.com -->
    <title>padlock</title>
    <desc>Created with Sketch.</desc>
    <g id="Page-1" stroke="none" stroke-width="1" fill="none" fill-rule="evenodd">
        <g id="1-sign-in" transform="translate(-904.000000, -595.000000)" fill="#000000" fill-rule="nonzero">
            <g id="Group-3" transform="translate(895.000000, 580.000000)">
                <g id="padlock" transform="translate(9.000000, 15.000000)">
                    <path d="M12.25,18 L1.75,18 C0.785555556,18 0,17.2600667 0,16.35 L0,8.65 C0,7.73993333 0.785555556,7 1.75,7 L12.25,7 C13.2144444,7 14,7.73993333 14,8.65 L14,16.35 C14,17.2600667 13.2144444,18 12.25,18 Z M1.75,8.1 C1.42877778,8.1 1.16666667,8.3464 1.16666667,8.65 L1.16666667,16.35 C1.16666667,16.6536 1.42877778,16.9 1.75,16.9 L12.25,16.9 C12.5712222,16.9 12.8333333,16.6536 12.8333333,16.35 L12.8333333,8.65 C12.8333333,8.3464 12.5712222,8.1 12.25,8.1 L1.75,8.1 Z" id="Shape"></path>
                    <path d="M10.9375,8 C10.627,8 10.375,7.744 10.375,7.42857143 L10.375,4.57142857 C10.375,2.68114286 8.86075,1.14285714 7,1.14285714 C5.13925,1.14285714 3.625,2.68114286 3.625,4.57142857 L3.625,7.42857143 C3.625,7.744 3.373,8 3.0625,8 C2.752,8 2.5,7.744 2.5,7.42857143 L2.5,4.57142857 C2.5,2.05028571 4.51825,0 7,0 C9.48175,0 11.5,2.05028571 11.5,4.57142857 L11.5,7.42857143 C11.5,7.744 11.248,8 10.9375,8 Z" id="Path"></path>
                </g>
            </g>
        </g>
    </g>
</svg>