<?xml version="1.0" encoding="UTF-8"?>
<svg width="16px" height="18px" viewBox="0 0 16 18" version="1.1" xmlns="http://www.w3.org/2000/svg" xmlns:xlink="http://www.w3.org/1999/xlink">
    <!-- Generator: Sketch 60.1 (88133) - https://sketch.com -->
    <title>545709</title>
    <desc>Created with Sketch.</desc>
    <g id="Page-1" stroke="none" stroke-width="1" fill="none" fill-rule="evenodd">
        <g id="2-events" transform="translate(-1217.000000, -132.000000)" fill="#000000" fill-rule="nonzero">
            <g id="545709" transform="translate(1217.000000, 132.000000)">
                <path d="M10.8569558,3.04530237 C10.4915752,2.91038213 10.0824425,3.08700312 9.94279646,3.43997144 C9.80315044,3.79287133 9.9859823,4.18842984 10.3511504,4.32338429 C12.8536283,5.24822422 14.5840708,7.57939556 14.5840708,10.2687692 C14.5840708,13.777277 11.6304779,16.6316406 8,16.6316406 C4.36952212,16.6316406 1.4159292,13.777277 1.4159292,10.2687692 C1.4159292,7.57792458 3.14718584,5.24805318 5.64860177,4.32348691 C6.01380531,4.18849826 6.19660177,3.79293975 6.05695575,3.44003985 C5.91723894,3.08710575 5.50785841,2.91048475 5.14279646,3.04540499 C2.09504425,4.17194111 0,7.00837917 0,10.2687692 C0,14.5422241 3.57840708,18 8,18 C12.4220177,18 16,14.5418136 16,10.2687692 C16,7.00694239 13.903646,4.17132535 10.8569558,3.04530237 Z" id="Path"></path>
                <path d="M8.5,0 C8.22385,0 8,0.303717177 8,0.67839441 L8,7.32160559 C8,7.69628282 8.22385,8 8.5,8 C8.77615,8 9,7.6962489 9,7.32160559 L9,0.67839441 C9,0.303717177 8.77615,0 8.5,0 Z" id="Path"></path>
            </g>
        </g>
    </g>
</svg>