<?xml version="1.0" encoding="UTF-8"?>
<svg width="14px" height="16px" viewBox="0 0 14 16" version="1.1" xmlns="http://www.w3.org/2000/svg" xmlns:xlink="http://www.w3.org/1999/xlink">
    <!-- Generator: Sketch 60.1 (88133) - https://sketch.com -->
    <title>man-avatar</title>
    <desc>Created with Sketch.</desc>
    <g id="Page-1" stroke="none" stroke-width="1" fill="none" fill-rule="evenodd">
        <g id="1-sign-in" transform="translate(-902.000000, -525.000000)" fill="#000000" fill-rule="nonzero">
            <g id="Group-2" transform="translate(893.000000, 508.000000)">
                <g id="man-avatar" transform="translate(9.000000, 17.000000)">
                    <path d="M7,8 C8.09901806,8 9.05055431,7.60581586 9.82825467,6.82809085 C10.6057016,6.05049258 11,5.09905289 11,3.9998733 C11,2.90107384 10.6058283,1.94950742 9.82812798,1.17165575 C9.05042761,0.394184177 8.09889136,0 7,0 C5.90085525,0 4.94944566,0.394184177 4.17187202,1.17178245 C3.39429838,1.94938072 3,2.90094715 3,3.9998733 C3,5.09905289 3.39429838,6.05061928 4.17187202,6.82821755 C4.94969908,7.60568912 5.90123533,8 7,8 Z M4.86012036,1.85992589 C5.45676277,1.26326458 6.15666771,0.973233229 6.99999998,0.973233229 C7.84320557,0.973233229 8.54323727,1.26326458 9.14000634,1.85992589 C9.73664871,2.45671386 10.0267976,3.15676771 10.0267976,3.9998733 C10.0267976,4.84323229 9.73664871,5.54315944 9.14000634,6.13994741 C8.54323727,6.73673542 7.84320557,7.02676677 6.99999998,7.02676677 C6.15692113,7.02676677 5.45701615,6.73660872 4.86012036,6.13994741 C4.26335129,5.54328614 3.9732024,4.84323229 3.9732024,3.9998733 C3.9732024,3.15676771 4.26335129,2.45671386 4.86012036,1.85992589 Z" id="Shape"></path>
                    <path d="M13.9660735,12.4245045 C13.9434132,12.1229652 13.8975803,11.7940347 13.8301114,11.446686 C13.7620023,11.0967399 13.6743055,10.7659204 13.5693253,10.4635547 C13.4607605,10.1510353 13.3134042,9.8424121 13.1309692,9.54665801 C12.9418768,9.23968772 12.7196262,8.97238743 12.4702343,8.75243143 C12.2094482,8.52232176 11.8901549,8.33731312 11.520932,8.20236428 C11.1529894,8.06812378 10.7452311,8.00011806 10.3090513,8.00011806 C10.1377544,8.00011806 9.97209065,8.06493604 9.65215722,8.25702858 C9.45525543,8.37544828 9.2249392,8.51240426 8.96786584,8.6638823 C8.74804764,8.79304596 8.45026245,8.91406309 8.08244784,9.02362787 C7.72359493,9.13071325 7.35923699,9.18502341 6.9994879,9.18502341 C6.63999488,9.18502341 6.27563694,9.13071325 5.916528,9.02362787 C5.54909743,8.91418115 5.25118423,8.79316402 5.03175011,8.66400035 C4.77710919,8.5139391 4.54666495,8.37698312 4.34681859,8.25691052 C4.02714122,8.06481798 3.86147739,8 3.69018052,8 C3.25387275,8 2.84624248,8.06812378 2.47842787,8.20248233 C2.10946101,8.33719506 1.79003971,8.5222037 1.52899758,8.75254949 C1.27960569,8.97262358 1.05735502,9.2398058 0.86839074,9.54665801 C0.686211753,9.8424121 0.538727436,10.1509172 0.430162592,10.4636727 C0.325310452,10.7660385 0.237613622,11.0967399 0.169504545,11.446686 C0.101907566,11.7935625 0.0562027992,12.122611 0.0335424566,12.4248587 C0.0112661631,12.7203766 0,13.0279373 0,13.3386856 C0,14.1464898 0.278453472,14.8004546 0.827550891,15.2827521 C1.36986302,15.7586741 2.08731277,16 2.96005633,16 L11.0399437,16 C11.9124312,16 12.629881,15.7586741 13.1723211,15.2827521 C13.7215466,14.8008088 14,14.1466078 14,13.3385676 C14,13.0267566 13.9884778,12.719196 13.9660735,12.4245045 L13.9660735,12.4245045 Z M12.4943029,14.6257176 C12.1359621,14.9402441 11.6602228,15.0931389 11.0398157,15.0931389 L2.96005633,15.0931389 C2.33952117,15.0931389 1.86378186,14.9402441 1.50556907,14.6258357 C1.1541416,14.3173305 0.983356797,13.8961909 0.983356797,13.3386856 C0.983356797,13.0487168 0.99372678,12.7624079 1.01446678,12.4875515 C1.03469465,12.2178899 1.07604659,11.9216635 1.13737038,11.6069009 C1.197926,11.2960345 1.27499681,11.0042946 1.36666241,10.7401821 C1.45461527,10.4869316 1.57457433,10.2361605 1.72333887,9.99459852 C1.86531813,9.76437078 2.02867752,9.56684721 2.20893613,9.40769492 C2.3775445,9.25881434 2.5900653,9.13697075 2.84048138,9.04558804 C3.07207784,8.96105314 3.33235181,8.91477147 3.61490207,8.9078056 C3.64934067,8.92468897 3.71066445,8.95692084 3.81001153,9.016662 C4.01216235,9.13815139 4.24516709,9.2767603 4.50275254,9.42847445 C4.79311229,9.59919715 5.1672001,9.7533907 5.61413392,9.88645052 C6.07105364,10.0226981 6.53706312,10.0918845 6.99961592,10.0918845 C7.46216875,10.0918845 7.92830624,10.0226981 8.38496993,9.88656858 C8.8322878,9.75327264 9.20624763,9.59919715 9.49699143,9.42823831 C9.76059405,9.27286414 9.98706952,9.13826945 10.1892203,9.016662 C10.2885674,8.95703893 10.3498912,8.92468897 10.3843298,8.9078056 C10.6670081,8.91477147 10.927282,8.96105314 11.1590066,9.04558804 C11.4092946,9.13697075 11.6218154,9.2589324 11.7904238,9.40769492 C11.9706824,9.56672916 12.1340418,9.76425273 12.276021,9.99471657 C12.4249136,10.2361605 12.5450006,10.4870497 12.6328255,10.740064 C12.7246191,11.0045308 12.801818,11.2961526 12.8622456,11.6067829 C12.9234413,11.9221358 12.9649213,12.2184802 12.9851492,12.4876695 L12.9851492,12.4879057 C13.0060172,12.7616996 13.0165152,13.0478903 13.0166432,13.3386856 C13.0165152,13.896309 12.8457304,14.3173305 12.4943029,14.6257176 L12.4943029,14.6257176 Z" id="Shape"></path>
                </g>
            </g>
        </g>
    </g>
</svg>